<svg width="70" height="70" viewBox="0 0 70 70" fill="none" xmlns="http://www.w3.org/2000/svg">
<path d="M51.0423 18.958H51.0715M20.4173 5.83301H49.584C57.6381 5.83301 64.1673 12.3622 64.1673 20.4163V49.583C64.1673 57.6372 57.6381 64.1663 49.584 64.1663H20.4173C12.3632 64.1663 5.83398 57.6372 5.83398 49.583V20.4163C5.83398 12.3622 12.3632 5.83301 20.4173 5.83301ZM46.6673 33.1622C47.0273 35.5896 46.6127 38.0686 45.4824 40.2468C44.3522 42.425 42.564 44.1913 40.3721 45.2946C38.1801 46.3978 35.6961 46.7818 33.2734 46.392C30.8506 46.0021 28.6125 44.8582 26.8773 43.1231C25.1421 41.3879 23.9982 39.1497 23.6083 36.727C23.2185 34.3042 23.6025 31.8202 24.7058 29.6283C25.809 27.4363 27.5754 25.6481 29.7535 24.5179C31.9317 23.3877 34.4108 22.9731 36.8381 23.333C39.3142 23.7002 41.6065 24.8539 43.3764 26.6239C45.1464 28.3939 46.3002 30.6861 46.6673 33.1622Z" stroke="#F5F5F5" stroke-width="5.83" stroke-linecap="round" stroke-linejoin="round"/>
</svg>
