<svg width="70" height="70" viewBox="0 0 70 70" fill="none" xmlns="http://www.w3.org/2000/svg">
<path d="M61.25 29.167C61.25 49.5837 35 67.0837 35 67.0837C35 67.0837 8.75 49.5837 8.75 29.167C8.75 22.2051 11.5156 15.5283 16.4384 10.6054C21.3613 5.68261 28.0381 2.91699 35 2.91699C41.9619 2.91699 48.6387 5.68261 53.5616 10.6054C58.4844 15.5283 61.25 22.2051 61.25 29.167Z" stroke="#F5F5F5" stroke-width="5.83" stroke-linecap="round" stroke-linejoin="round"/>
<path d="M35 37.917C39.8325 37.917 43.75 33.9995 43.75 29.167C43.75 24.3345 39.8325 20.417 35 20.417C30.1675 20.417 26.25 24.3345 26.25 29.167C26.25 33.9995 30.1675 37.917 35 37.917Z" stroke="#F5F5F5" stroke-width="5.83" stroke-linecap="round" stroke-linejoin="round"/>
</svg>
