<svg width="70" height="70" viewBox="0 0 70 70" fill="none" xmlns="http://www.w3.org/2000/svg">
<path d="M64.1672 49.35V58.1C64.1705 58.9123 64.0041 59.7163 63.6787 60.4606C63.3532 61.2048 62.876 61.8729 62.2774 62.4221C61.6788 62.9712 60.9722 63.3893 60.2027 63.6495C59.4332 63.9098 58.6178 64.0064 57.8088 63.9333C48.8338 62.9581 40.2126 59.8912 32.638 54.9791C25.5908 50.5011 19.6161 44.5263 15.138 37.4791C10.2088 29.8701 7.14121 21.207 6.18383 12.1916C6.11094 11.3851 6.2068 10.5722 6.46529 9.8047C6.72378 9.03722 7.13924 8.33197 7.68523 7.73385C8.23122 7.13574 8.89576 6.65786 9.63655 6.33065C10.3773 6.00343 11.1782 5.83405 11.988 5.83329H20.738C22.1535 5.81936 23.5257 6.3206 24.599 7.24359C25.6722 8.16659 26.3732 9.44834 26.5713 10.85C26.9406 13.6502 27.6256 16.3996 28.613 19.0458C29.0054 20.0897 29.0903 21.2243 28.8577 22.315C28.6251 23.4058 28.0847 24.4069 27.3005 25.2L23.5963 28.9041C27.7484 36.2061 33.7943 42.2521 41.0963 46.4041L44.8005 42.7C45.5935 41.9158 46.5947 41.3754 47.6854 41.1427C48.7762 40.9101 49.9107 40.995 50.9547 41.3875C53.6009 42.3749 56.3503 43.0598 59.1505 43.4291C60.5673 43.629 61.8613 44.3426 62.7862 45.4343C63.7112 46.526 64.2027 47.9196 64.1672 49.35Z" stroke="#F5F5F5" stroke-width="5.83" stroke-linecap="round" stroke-linejoin="round"/>
</svg>
