<svg width="37" height="37" viewBox="0 0 37 37" fill="none" xmlns="http://www.w3.org/2000/svg">
<g clip-path="url(#clip0_1448_1463)">
<path d="M18.2521 3.2868C23.1288 3.2868 23.7063 3.30819 25.6242 3.39375C27.4067 3.47218 28.3692 3.77163 29.0109 4.02117C29.8593 4.34913 30.4725 4.7484 31.107 5.38294C31.7487 6.02462 32.1408 6.63065 32.4688 7.47908C32.7183 8.12076 33.0178 9.0904 33.0962 10.8657C33.1818 12.7907 33.2031 13.3682 33.2031 18.2378C33.2031 23.1146 33.1818 23.6921 33.0962 25.61C33.0178 27.3924 32.7183 28.3549 32.4688 28.9966C32.1408 29.845 31.7415 30.4582 31.107 31.0927C30.4653 31.7344 29.8593 32.1266 29.0109 32.4545C28.3692 32.7041 27.3995 33.0035 25.6242 33.0819C23.6992 33.1675 23.1217 33.1889 18.2521 33.1889C13.3754 33.1889 12.7979 33.1675 10.88 33.0819C9.09753 33.0035 8.13502 32.7041 7.49334 32.4545C6.64491 32.1266 6.03175 31.7273 5.3972 31.0927C4.75553 30.4511 4.36339 29.845 4.03543 28.9966C3.78588 28.3549 3.48644 27.3853 3.40801 25.61C3.32245 23.685 3.30106 23.1074 3.30106 18.2378C3.30106 13.3611 3.32245 12.7836 3.40801 10.8657C3.48644 9.08327 3.78588 8.12076 4.03543 7.47908C4.36339 6.63065 4.76266 6.01749 5.3972 5.38294C6.03888 4.74127 6.64491 4.34913 7.49334 4.02117C8.13502 3.77163 9.10466 3.47218 10.88 3.39375C12.7979 3.30819 13.3754 3.2868 18.2521 3.2868ZM18.2521 0C13.2969 0 12.6767 0.0213892 10.7302 0.106946C8.79095 0.192503 7.45769 0.50621 6.30268 0.955383C5.09775 1.42595 4.0782 2.04623 3.06578 3.06578C2.04623 4.0782 1.42595 5.09776 0.955383 6.29555C0.506211 7.45769 0.192503 8.78382 0.106946 10.7231C0.0213892 12.6767 0 13.2969 0 18.2521C0 23.2073 0.0213892 23.8275 0.106946 25.774C0.192503 27.7132 0.506211 29.0465 0.955383 30.2015C1.42595 31.4064 2.04623 32.426 3.06578 33.4384C4.0782 34.4508 5.09776 35.0783 6.29555 35.5417C7.45769 35.9909 8.78382 36.3046 10.7231 36.3901C12.6695 36.4757 13.2898 36.4971 18.245 36.4971C23.2001 36.4971 23.8204 36.4757 25.7668 36.3901C27.7061 36.3046 29.0394 35.9909 30.1944 35.5417C31.3922 35.0783 32.4117 34.4508 33.4242 33.4384C34.4366 32.426 35.064 31.4064 35.5274 30.2087C35.9766 29.0465 36.2903 27.7204 36.3759 25.7811C36.4614 23.8347 36.4828 23.2144 36.4828 18.2592C36.4828 13.3041 36.4614 12.6838 36.3759 10.7374C36.2903 8.79808 35.9766 7.46482 35.5274 6.30981C35.0783 5.09775 34.458 4.0782 33.4384 3.06578C32.426 2.05336 31.4064 1.42595 30.2087 0.962513C29.0465 0.51334 27.7204 0.199632 25.7811 0.114076C23.8275 0.0213892 23.2073 0 18.2521 0Z" fill="#FDB1FA"/>
<path d="M18.2545 8.87891C13.0783 8.87891 8.87891 13.0783 8.87891 18.2545C8.87891 23.4307 13.0783 27.6301 18.2545 27.6301C23.4307 27.6301 27.6301 23.4307 27.6301 18.2545C27.6301 13.0783 23.4307 8.87891 18.2545 8.87891ZM18.2545 24.3362C14.8964 24.3362 12.1728 21.6126 12.1728 18.2545C12.1728 14.8964 14.8964 12.1728 18.2545 12.1728C21.6126 12.1728 24.3362 14.8964 24.3362 18.2545C24.3362 21.6126 21.6126 24.3362 18.2545 24.3362Z" fill="#FDB1FA"/>
<path d="M30.1902 8.50524C30.1902 9.71729 29.2063 10.6941 28.0013 10.6941C26.7893 10.6941 25.8125 9.71016 25.8125 8.50524C25.8125 7.29318 26.7964 6.31641 28.0013 6.31641C29.2063 6.31641 30.1902 7.30031 30.1902 8.50524Z" fill="#FDB1FA"/>
</g>
<defs>
<clipPath id="clip0_1448_1463">
<rect width="36.5042" height="36.5042" fill="white"/>
</clipPath>
</defs>
</svg>
