<svg width="216" height="62" viewBox="0 0 216 62" fill="none" xmlns="http://www.w3.org/2000/svg">
<g clip-path="url(#clip0_1448_1455)">
<path d="M130.756 3.53689C131.736 4.25275 132.66 5.04236 133.519 5.89879C136.227 8.6509 138.57 11.7377 140.491 15.0839C141.91 17.5114 143.163 20.0322 144.24 22.629C145.622 25.9651 146.722 29.4105 147.529 32.9295C148.461 36.7106 148.968 40.5835 149.041 44.4766C149.129 47.3484 148.819 50.2184 148.121 53.0056C147.579 55.4282 146.45 57.6811 144.832 59.5665C143.846 60.6632 142.569 61.4593 141.149 61.8628C139.932 62.2071 138.659 62.3031 137.404 62.1453C136.15 61.9875 134.94 61.579 133.848 60.9443C131.38 59.6233 129.156 57.8928 127.27 55.8268C125.51 53.9873 123.924 51.9885 122.535 49.8564C120.612 46.8947 118.94 43.7785 117.536 40.5401C116.353 37.7236 115.365 34.8302 114.576 31.8798C113.833 29.2775 113.283 26.6241 112.932 23.9411C112.505 20.9211 112.373 17.867 112.537 14.8216C112.679 11.6442 113.438 8.52463 114.773 5.6364C115.454 4.23169 116.443 2.99821 117.667 2.02792C118.522 1.30759 119.524 0.781725 120.603 0.487117C121.682 0.19251 122.813 0.136182 123.916 0.322035C125.121 0.495883 126.281 0.896702 127.336 1.50304C128.587 1.97643 129.744 2.66479 130.756 3.53689ZM131.217 51.956C132.455 53.1036 133.878 54.0351 135.426 54.7115C136.274 55.1332 137.208 55.3527 138.156 55.3527C139.103 55.3527 140.038 55.1332 140.885 54.7115C141.708 54.1923 142.404 53.4977 142.924 52.6777C144.047 50.9146 144.745 48.9159 144.963 46.8385C145.403 43.1198 145.247 39.355 144.503 35.685C143.924 32.2688 142.975 28.9252 141.675 25.7126C140.065 21.5003 137.849 17.5442 135.097 13.9686C134.063 12.6095 132.919 11.3368 131.677 10.1633C130.55 9.16191 129.288 8.32281 127.928 7.67025C127.072 7.27911 126.164 7.01385 125.231 6.88288C124.383 6.8101 123.53 6.93861 122.741 7.2579C121.952 7.57718 121.25 8.07818 120.693 8.71991C119.653 9.79665 118.926 11.1345 118.588 12.5909C118.026 14.3786 117.694 16.2306 117.602 18.102C117.602 18.8237 117.602 19.5453 117.602 20.3326C117.602 19.7422 117.602 19.1517 117.602 18.6269C117.737 17.1951 118.046 15.7851 118.522 14.4279C118.818 13.548 119.337 12.7593 120.028 12.1385C120.72 11.5177 121.56 11.0859 122.469 10.885C123.376 10.66 124.324 10.66 125.231 10.885C126.51 11.401 127.689 12.1335 128.717 13.0501C130.933 15.0464 132.8 17.3966 134.242 20.0046C136.664 24.0815 138.439 28.5078 139.504 33.1263C140.452 36.6306 140.851 40.26 140.688 43.8861C140.653 45.733 140.274 47.5574 139.57 49.266C139.255 50.2048 138.68 51.0356 137.912 51.6624C137.144 52.2893 136.214 52.6867 135.229 52.8088C134.555 52.9381 133.863 52.9381 133.19 52.8088C131.788 52.2925 130.511 51.4877 129.441 50.4469L127.797 48.9379C128.815 49.9978 129.964 50.9238 131.217 51.6935V51.956ZM125.889 45.0671C126.858 46.2646 127.986 47.3241 129.243 48.2162C130.102 48.9184 131.161 49.3318 132.269 49.3972C132.905 49.4048 133.532 49.245 134.086 48.934C134.64 48.623 135.102 48.1718 135.426 47.6258C136.271 46.1929 136.724 44.5642 136.742 42.902C136.907 40.3499 136.708 37.7874 136.15 35.2914C135.352 31.4827 134.047 27.7977 132.269 24.3348C131.041 21.9326 129.468 19.7224 127.599 17.7739C126.633 16.7467 125.439 15.9602 124.113 15.4777C123.395 15.1873 122.601 15.139 121.853 15.3403C121.105 15.5417 120.444 15.9817 119.97 16.593C119.286 17.5306 118.814 18.6051 118.588 19.7422C118.237 21.2024 118.082 22.7026 118.128 24.2035C118.06 24.6822 118.06 25.1682 118.128 25.6469C118.128 24.9252 118.128 24.2035 118.128 23.4818C118.228 22.8848 118.36 22.2936 118.522 21.7105C118.659 21.3154 118.884 20.9564 119.18 20.6609C119.477 20.3654 119.836 20.1409 120.232 20.0046C120.631 19.8079 121.07 19.7056 121.515 19.7056C121.96 19.7056 122.399 19.8079 122.798 20.0046C123.866 20.6298 124.804 21.454 125.56 22.4322C126.927 24.0587 128.056 25.8699 128.915 27.812C130.368 30.9246 131.322 34.2454 131.743 37.6533C132.006 39.305 132.006 40.9879 131.743 42.6396L131.348 43.8861C131.229 44.3375 131 44.7524 130.681 45.0936C130.361 45.4348 129.962 45.6918 129.519 45.8413C129.076 45.9909 128.602 46.0284 128.141 45.9505C127.68 45.8727 127.245 45.6818 126.876 45.3951C126.01 44.7617 125.216 44.0356 124.508 43.23C124.923 43.793 125.385 44.3197 125.889 44.8046V45.0671ZM127.665 42.3115C127.862 42.038 127.997 41.7244 128.06 41.393C128.388 39.8576 128.388 38.2702 128.06 36.7348C127.608 33.7246 126.581 30.829 125.034 28.2056C124.412 27.1374 123.611 26.1832 122.666 25.3845C122.253 25.0463 121.786 24.7801 121.285 24.5972C120.945 24.4501 120.565 24.4218 120.207 24.5171C119.849 24.6123 119.533 24.8255 119.312 25.122C118.985 25.4795 118.753 25.9132 118.639 26.3832C118.524 26.8533 118.529 27.3446 118.654 27.812C118.983 29.5934 119.444 31.3479 120.035 33.0607C120.665 35.1223 121.434 37.1389 122.337 39.0967C122.666 39.9496 123.061 40.7368 123.456 41.5241C123.758 42.1016 124.244 42.563 124.837 42.8364C125.318 43.0986 125.883 43.1629 126.411 43.0159C126.939 42.8688 127.389 42.5219 127.665 42.049V42.3115Z" fill="#F5F5F5"/>
<path d="M7.69806 3.54297H51.24L49.793 14.5651H20.3264L18.8794 25.5874H45.7151L31.508 36.3472H17.5641L16.0512 47.3694H45.9782L44.4654 58.3916H0.265625L7.69806 3.54297Z" fill="#F5F5F5"/>
<path d="M89.186 3.54297H108.918L66.1652 42.1208L63.8633 58.654H49.6562L57.8121 3.54297H72.0192L69.4539 21.5853L89.186 3.54297ZM85.0424 28.8023L105.564 58.654H87.147L73.4662 38.9715L85.0424 28.8023Z" fill="#F5F5F5"/>
<path d="M216.004 4.98438L214.228 17.5812L213.965 19.6151L213.438 23.1579L213.044 25.8479L211.926 34.0489L210.215 45.8584L208.242 60.0955H194.035L196.863 39.7569L196.929 39.6912L197.324 36.542L170.028 45.8584L168.055 60.0955H153.848L161.609 4.98438H175.816L171.672 34.0489L199.034 24.7325L199.363 22.2394L201.797 4.98438H216.004Z" fill="#F5F5F5"/>
</g>
<defs>
<clipPath id="clip0_1448_1455">
<rect width="216" height="62" fill="white"/>
</clipPath>
</defs>
</svg>
