<svg width="70" height="70" viewBox="0 0 70 70" fill="none" xmlns="http://www.w3.org/2000/svg">
<path d="M61.25 15.5C62.4531 15.5 63.4375 16.475 63.4375 17.6667V22H6.5625V17.6667C6.5625 16.475 7.54687 15.5 8.75 15.5H61.25ZM63.4375 30.6667V52.3333C63.4375 53.525 62.4531 54.5 61.25 54.5H8.75C7.54687 54.5 6.5625 53.525 6.5625 52.3333V30.6667H63.4375ZM8.75 9C3.92383 9 0 12.8865 0 17.6667V52.3333C0 57.1135 3.92383 61 8.75 61H61.25C66.0762 61 70 57.1135 70 52.3333V17.6667C70 12.8865 66.0762 9 61.25 9H8.75ZM10.9375 46.9167C10.9375 48.7177 12.4004 50.1667 14.2188 50.1667H20.7812C22.5996 50.1667 24.0625 48.7177 24.0625 46.9167C24.0625 45.1156 22.5996 43.6667 20.7812 43.6667H14.2188C12.4004 43.6667 10.9375 45.1156 10.9375 46.9167ZM30.625 46.9167C30.625 48.7177 32.0879 50.1667 33.9062 50.1667H42.6562C44.4746 50.1667 45.9375 48.7177 45.9375 46.9167C45.9375 45.1156 44.4746 43.6667 42.6562 43.6667H33.9062C32.0879 43.6667 30.625 45.1156 30.625 46.9167Z" fill="#FDB1FA"/>
</svg>
