<svg width="37" height="37" viewBox="0 0 37 37" fill="none" xmlns="http://www.w3.org/2000/svg">
<g clip-path="url(#clip0_1448_1462)">
<path d="M18.2521 0C8.17183 0 0 8.17183 0 18.2521C0 26.8116 5.89324 33.9942 13.8431 35.9669V23.8299H10.0795V18.2521H13.8431V15.8487C13.8431 9.63638 16.6547 6.75693 22.7538 6.75693C23.9103 6.75693 25.9056 6.98398 26.7218 7.21031V12.2661C26.2911 12.2209 25.5427 12.1982 24.6133 12.1982C21.6207 12.1982 20.4643 13.3321 20.4643 16.2794V18.2521H26.4261L25.4018 23.8299H20.4643V36.3706C29.502 35.2791 36.5049 27.584 36.5049 18.2521C36.5042 8.17183 28.3324 0 18.2521 0Z" fill="white"/>
</g>
<defs>
<clipPath id="clip0_1448_1462">
<rect width="36.5042" height="36.5042" fill="white"/>
</clipPath>
</defs>
</svg>
