<svg width="48" height="48" viewBox="0 0 48 48" fill="none" xmlns="http://www.w3.org/2000/svg">
<path d="M41.6802 9.22C40.6587 8.19801 39.4459 7.38729 38.1109 6.83416C36.776 6.28104 35.3452 5.99635 33.9002 5.99635C32.4553 5.99635 31.0244 6.28104 29.6895 6.83416C28.3546 7.38729 27.1418 8.19801 26.1202 9.22L24.0002 11.34L21.8802 9.22C19.8169 7.15661 17.0183 5.99742 14.1002 5.99742C11.1822 5.99742 8.38362 7.15661 6.32024 9.22C4.25685 11.2834 3.09766 14.0819 3.09766 17C3.09766 19.9181 4.25685 22.7166 6.32024 24.78L24.0002 42.46L41.6802 24.78C42.7022 23.7585 43.5129 22.5456 44.0661 21.2107C44.6192 19.8758 44.9039 18.445 44.9039 17C44.9039 15.555 44.6192 14.1242 44.0661 12.7893C43.5129 11.4544 42.7022 10.2415 41.6802 9.22Z" stroke="#F5F5F5" stroke-width="4" stroke-linecap="round" stroke-linejoin="round"/>
</svg>
