<svg width="32" height="32" viewBox="0 0 32 32" fill="none" xmlns="http://www.w3.org/2000/svg">
<g clip-path="url(#clip0_612_1567)">
<path d="M1.33203 1.33398H6.66536L10.2387 19.1873C10.3606 19.8012 10.6946 20.3526 11.1821 20.745C11.6696 21.1375 12.2796 21.346 12.9054 21.334H25.8654C26.4911 21.346 27.1011 21.1375 27.5886 20.745C28.0762 20.3526 28.4101 19.8012 28.532 19.1873L30.6654 8.00065H7.9987M13.332 28.0007C13.332 28.737 12.7351 29.334 11.9987 29.334C11.2623 29.334 10.6654 28.737 10.6654 28.0007C10.6654 27.2643 11.2623 26.6673 11.9987 26.6673C12.7351 26.6673 13.332 27.2643 13.332 28.0007ZM27.9987 28.0007C27.9987 28.737 27.4017 29.334 26.6654 29.334C25.929 29.334 25.332 28.737 25.332 28.0007C25.332 27.2643 25.929 26.6673 26.6654 26.6673C27.4017 26.6673 27.9987 27.2643 27.9987 28.0007Z" stroke="#FDB1FA" stroke-width="3" stroke-linecap="round" stroke-linejoin="round"/>
</g>
<defs>
<clipPath id="clip0_612_1567">
<rect width="32" height="32" fill="white"/>
</clipPath>
</defs>
</svg>
