<svg width="70" height="70" viewBox="0 0 70 70" fill="none" xmlns="http://www.w3.org/2000/svg">
<path d="M46.668 46.6667V8.75H2.91797V46.6667H46.668ZM46.668 46.6667H67.0846V32.0833L58.3346 23.3333H46.668V46.6667ZM23.3346 53.9583C23.3346 57.9854 20.07 61.25 16.043 61.25C12.0159 61.25 8.7513 57.9854 8.7513 53.9583C8.7513 49.9313 12.0159 46.6667 16.043 46.6667C20.07 46.6667 23.3346 49.9313 23.3346 53.9583ZM61.2513 53.9583C61.2513 57.9854 57.9867 61.25 53.9596 61.25C49.9326 61.25 46.668 57.9854 46.668 53.9583C46.668 49.9313 49.9326 46.6667 53.9596 46.6667C57.9867 46.6667 61.2513 49.9313 61.2513 53.9583Z" stroke="#FDB1FA" stroke-width="5.83333" stroke-linecap="round" stroke-linejoin="round"/>
</svg>
